<svg width="381" height="33" viewBox="0 0 381 33" fill="none" xmlns="http://www.w3.org/2000/svg">
<path d="M29.9302 1.22161V18.6126C29.9302 22.2107 29.5304 25.0274 28.7308 27.0627C27.9676 29.0617 26.5138 30.5336 24.3694 31.4786C22.2251 32.4236 19.0994 32.8961 14.9925 32.8961C11.9759 32.8961 9.43175 32.5871 7.3601 31.9693C5.28845 31.3151 3.63476 30.0975 2.39904 28.3166C1.19966 26.5357 0.599976 24.0279 0.599976 20.7933V1.22161H10.4131V18.7216C10.4131 20.6479 10.5039 22.1198 10.6856 23.1375C10.9037 24.1188 11.3762 24.882 12.1031 25.4272C12.83 25.936 13.9385 26.1905 15.4286 26.1905C16.3372 26.1905 17.1914 26.0996 17.9909 25.9179C18.7905 25.7361 19.3357 25.4636 19.6264 25.1001C19.9536 24.664 20.1171 23.083 20.1171 20.3571V1.22161H29.9302Z" fill="#007BFF"/>
<path d="M63.3999 32.2964H53.0961L51.2425 24.4459C51.1699 24.1551 51.0426 23.6645 50.8609 22.9739C50.7155 22.247 50.5338 21.72 50.3157 21.3929C50.0977 21.0295 49.7888 20.7933 49.389 20.6842C48.3713 20.7206 46.8812 20.7387 44.9186 20.7387V32.2964H35.1055V1.4942C39.5032 1.1671 43.6101 1.00355 47.4263 1.00355C50.8791 1.00355 53.6776 1.29431 55.822 1.87582C57.9663 2.42099 59.5655 3.38413 60.6195 4.76523C61.7098 6.10998 62.255 7.96357 62.255 10.326C62.255 12.543 61.7462 14.2875 60.7285 15.5596C59.7109 16.7953 58.0754 17.5404 55.822 17.7948V18.1219C57.094 18.231 58.148 18.6489 58.984 19.3758C59.8562 20.0664 60.4378 20.9568 60.7285 22.0472L63.3999 32.2964ZM44.9186 14.5783C45.2457 14.6147 45.8817 14.6328 46.8267 14.6328C49.6252 14.6328 51.2607 14.3966 51.7332 13.9241C52.1693 13.488 52.3874 12.4703 52.3874 10.8711C52.3874 9.38101 51.9876 8.36336 51.188 7.81819C50.4248 7.27302 49.1527 7.00043 47.3718 7.00043C46.972 7.00043 46.1543 7.03677 44.9186 7.10946V14.5783Z" fill="#007BFF"/>
<path d="M86.901 15.8867C89.3724 16.1775 91.1351 17.0134 92.1891 18.3945C93.2431 19.7393 93.7701 21.3748 93.7701 23.301C93.7701 24.5004 93.5884 25.6453 93.225 26.7356C92.8615 27.7896 92.4254 28.6982 91.9166 29.4615C91.4077 30.1884 90.9716 30.6609 90.6082 30.8789C89.1544 31.8239 84.7203 32.2964 77.306 32.2964H66.7297V1.22161H79.5412C82.4488 1.22161 84.793 1.38517 86.5739 1.71227C88.3911 2.00303 89.8631 2.69358 90.9898 3.78392C92.1165 4.83792 92.6798 6.45526 92.6798 8.63594C92.6798 10.5259 92.2073 12.0523 91.2624 13.2154C90.3537 14.3784 88.9 15.178 86.901 15.6141V15.8867ZM82.5396 7.81819C82.1762 7.45474 81.74 7.23667 81.2312 7.16398C80.7587 7.05495 79.9955 7.00043 78.9415 7.00043C77.8875 7.00043 77.0879 7.0186 76.5427 7.05495V13.706H77.0879C77.2696 13.706 78.0329 13.706 79.3776 13.706C80.7224 13.706 81.6128 13.6152 82.049 13.4334C82.3761 13.2881 82.6668 12.9064 82.9212 12.2886C83.212 11.6707 83.3574 10.9984 83.3574 10.2715C83.3574 9.18111 83.0848 8.36336 82.5396 7.81819ZM83.4664 26.0269C83.7208 25.8088 83.9207 25.409 84.0661 24.8275C84.2478 24.2097 84.3387 23.5918 84.3387 22.9739C84.3387 22.2107 84.2297 21.502 84.0116 20.8478C83.8299 20.1572 83.5754 19.6666 83.2483 19.3758C82.9212 19.0487 82.4488 18.8306 81.8309 18.7216C81.2494 18.6126 80.2499 18.5581 78.8325 18.5581C77.9238 18.5581 77.1606 18.5762 76.5427 18.6126V26.5176C78.2509 26.5539 79.7774 26.5357 81.1222 26.463C82.4669 26.354 83.2483 26.2086 83.4664 26.0269Z" fill="#007BFF"/>
<path d="M115.226 25.4817H106.177L104.541 32.2964H94.51L104.541 1.22161H117.353L126.948 32.2964H116.862L115.226 25.4817ZM110.647 7.92722L107.431 19.4303H113.918L110.865 7.92722H110.647Z" fill="#007BFF"/>
<path d="M138.763 19.7574V32.2964H129.659V1.22161H138.872L147.104 13.7606C148.34 15.6141 149.285 17.177 149.939 18.449H150.103V1.22161H159.152V32.2964H149.884L141.434 19.2123L138.981 15.5051H138.817L138.763 19.7574Z" fill="#007BFF"/>
<path d="M181.67 9.61725C181.67 10.3805 182.052 10.9802 182.815 11.4163C183.614 11.8525 184.85 12.3249 186.522 12.8338C188.521 13.488 190.157 14.124 191.429 14.7419C192.737 15.3597 193.864 16.3229 194.809 17.6313C195.79 18.9397 196.281 20.6479 196.281 22.7559C196.281 29.516 191.883 32.8961 183.087 32.8961C181.634 32.8961 179.853 32.7689 177.745 32.5144C175.673 32.26 173.783 31.9329 172.075 31.5331C172.148 30.7699 172.293 29.6614 172.511 28.2076C172.766 26.7174 173.002 25.6089 173.22 24.882C174.492 25.0638 176.4 25.2818 178.944 25.5362C181.525 25.7907 183.469 25.9179 184.778 25.9179C185.541 25.9179 185.995 25.8633 186.14 25.7543C186.359 25.6089 186.522 25.3727 186.631 25.0456C186.776 24.6821 186.849 24.3732 186.849 24.1188C186.849 23.3919 186.504 22.8467 185.813 22.4833C185.123 22.0835 183.942 21.611 182.27 21.0658C180.271 20.448 178.617 19.812 177.309 19.1577C176 18.5035 174.855 17.4859 173.874 16.1048C172.893 14.7237 172.402 12.9065 172.402 10.6531C172.402 9.05391 172.766 7.49108 173.492 5.96461C174.219 4.40178 174.964 3.34778 175.728 2.80261C176.309 2.40282 177.509 2.0212 179.326 1.65775C181.143 1.29431 182.851 1.11258 184.45 1.11258C188.521 1.11258 191.847 1.4942 194.427 2.25744C194.391 2.98434 194.263 3.98382 194.045 5.25588C193.864 6.52795 193.664 7.69098 193.446 8.74498L192.192 8.69046C187.467 8.36336 184.45 8.19981 183.142 8.19981C182.597 8.19981 182.288 8.21798 182.215 8.25432C182.07 8.32701 181.943 8.49056 181.834 8.74498C181.725 8.99939 181.67 9.29015 181.67 9.61725Z" fill="#007BFF"/>
<path d="M200.677 1.22161H210.49V25.1001H223.193V32.2964H200.677V1.22161Z" fill="#007BFF"/>
<path d="M244.705 25.4817H235.655L234.019 32.2964H223.988L234.019 1.22161H246.831L256.426 32.2964H246.34L244.705 25.4817ZM240.125 7.92722L236.909 19.4303H243.396L240.343 7.92722H240.125Z" fill="#007BFF"/>
<path d="M268.241 19.7574V32.2964H259.137V1.22161H268.35L276.582 13.7606C277.818 15.6141 278.763 17.177 279.417 18.449H279.581V1.22161H288.63V32.2964H279.363L270.912 19.2123L268.459 15.5051H268.296L268.241 19.7574Z" fill="#007BFF"/>
<path d="M321.158 15.069V30.6063C318.723 31.4059 316.415 31.9874 314.234 32.3509C312.054 32.7143 310.218 32.8961 308.728 32.8961C303.785 32.8961 299.915 31.6058 297.116 29.0253C294.317 26.4449 292.918 22.4833 292.918 17.1406C292.918 11.6889 294.39 7.61829 297.334 4.92878C300.278 2.20292 304.421 0.839996 309.764 0.839996C312.562 0.839996 315.924 1.25796 319.85 2.09389C319.85 2.82078 319.777 3.91113 319.632 5.36492C319.486 6.78236 319.341 7.78184 319.195 8.36336L317.233 8.30884C314.834 8.23615 312.962 8.19981 311.618 8.19981C307.583 8.19981 305.384 8.43605 305.021 8.90853C304.439 9.59908 304.021 10.6712 303.767 12.125C303.549 13.5788 303.44 14.9781 303.44 16.3229C303.44 18.758 303.713 20.6479 304.258 21.9926C304.803 23.3374 305.639 24.2824 306.766 24.8275C307.892 25.3727 309.419 25.6453 311.345 25.6453H311.563V15.069H321.158Z" fill="#007BFF"/>
<path d="M325.52 1.22161H348.144V7.76367H335.333V13.4334H346.127V19.3213H335.333V25.6453H348.09V32.2964H325.52V1.22161Z" fill="#007BFF"/>
<path d="M380.6 32.2964H370.296L368.443 24.4459C368.37 24.1551 368.243 23.6645 368.061 22.9739C367.916 22.247 367.734 21.72 367.516 21.3929C367.298 21.0295 366.989 20.7933 366.589 20.6842C365.571 20.7206 364.081 20.7387 362.119 20.7387V32.2964H352.306V1.4942C356.703 1.1671 360.81 1.00355 364.626 1.00355C368.079 1.00355 370.878 1.29431 373.022 1.87582C375.166 2.42099 376.766 3.38413 377.82 4.76523C378.91 6.10998 379.455 7.96357 379.455 10.326C379.455 12.543 378.946 14.2875 377.929 15.5596C376.911 16.7953 375.275 17.5404 373.022 17.7948V18.1219C374.294 18.231 375.348 18.6489 376.184 19.3758C377.056 20.0664 377.638 20.9568 377.929 22.0472L380.6 32.2964ZM362.119 14.5783C362.446 14.6147 363.082 14.6328 364.027 14.6328C366.825 14.6328 368.461 14.3966 368.933 13.9241C369.369 13.488 369.588 12.4703 369.588 10.8711C369.588 9.38101 369.188 8.36336 368.388 7.81819C367.625 7.27302 366.353 7.00043 364.572 7.00043C364.172 7.00043 363.354 7.03677 362.119 7.10946V14.5783Z" fill="#007BFF"/>
</svg>
