<svg width="21" height="11" viewBox="0 0 21 11" fill="none" xmlns="http://www.w3.org/2000/svg">
<path d="M10.1311 0.399994V6.05136C10.1311 7.22061 10.0012 8.13594 9.74138 8.79733C9.49336 9.44691 9.02093 9.92524 8.32411 10.2323C7.62728 10.5394 6.61157 10.6929 5.27697 10.6929C4.29669 10.6929 3.46995 10.5925 2.79675 10.3918C2.12354 10.1792 1.58616 9.78351 1.1846 9.20479C0.79485 8.62607 0.599976 7.81114 0.599976 6.76V0.399994H3.78884V6.0868C3.78884 6.71276 3.81836 7.19109 3.87742 7.52178C3.94828 7.84067 4.10182 8.08869 4.33803 8.26585C4.57424 8.4312 4.93446 8.51387 5.4187 8.51387C5.71396 8.51387 5.99151 8.48435 6.25135 8.4253C6.51118 8.36624 6.68834 8.27766 6.78282 8.15956C6.88912 8.01783 6.94227 7.50407 6.94227 6.61827V0.399994H10.1311Z" fill="#007BFF"/>
<path d="M18.3678 5.16557C19.1709 5.26005 19.7437 5.5317 20.0862 5.9805C20.4287 6.41749 20.6 6.94897 20.6 7.57493C20.6 7.96468 20.5409 8.33672 20.4228 8.69103C20.3047 9.03354 20.163 9.3288 19.9976 9.57683C19.8323 9.81304 19.6906 9.96658 19.5725 10.0374C19.1 10.3445 17.6591 10.4981 15.2498 10.4981H11.8129V0.399994H15.9761C16.921 0.399994 17.6828 0.453142 18.2615 0.559437C18.852 0.653922 19.3303 0.878324 19.6965 1.23264C20.0626 1.57515 20.2457 2.10072 20.2457 2.80936C20.2457 3.42351 20.0921 3.91955 19.785 4.29749C19.4898 4.67543 19.0174 4.93526 18.3678 5.07699V5.16557ZM16.9505 2.54362C16.8324 2.42551 16.6907 2.35465 16.5253 2.33103C16.3718 2.2956 16.1238 2.27788 15.7813 2.27788C15.4387 2.27788 15.1789 2.28378 15.0018 2.29559V4.45693H15.1789C15.238 4.45693 15.486 4.45693 15.923 4.45693C16.36 4.45693 16.6493 4.42741 16.7911 4.36835C16.8974 4.32111 16.9918 4.1971 17.0745 3.99632C17.169 3.79554 17.2162 3.57704 17.2162 3.34083C17.2162 2.98651 17.1277 2.72078 16.9505 2.54362ZM17.2517 8.46073C17.3343 8.38986 17.3993 8.25995 17.4465 8.07098C17.5056 7.8702 17.5351 7.66942 17.5351 7.46864C17.5351 7.22061 17.4997 6.99031 17.4288 6.77772C17.3698 6.55331 17.2871 6.39387 17.1808 6.29939C17.0745 6.19309 16.921 6.12223 16.7202 6.0868C16.5312 6.05137 16.2064 6.03365 15.7458 6.03365C15.4506 6.03365 15.2025 6.03955 15.0018 6.05136V8.62017C15.5569 8.63198 16.0529 8.62608 16.4899 8.60245C16.9269 8.56702 17.1808 8.51978 17.2517 8.46073Z" fill="#007BFF"/>
</svg>
